{
	"asset":{
		"generator":"Khronos glTF Blender I/O v5.0.21",
		"version":"2.0"
	},
	"extensionsUsed":[
		"KHR_materials_clearcoat",
		"KHR_materials_specular",
		"KHR_materials_ior"
	],
	"scene":0,
	"scenes":[
		{
			"name":"Scene",
			"nodes":[
				0
			]
		}
	],
	"nodes":[
		{
			"mesh":0,
			"name":"Winter_Lake_Landscape",
			"scale":[
				0.009999999776482582,
				0.009999999776482582,
				0.009999999776482582
			]
		}
	],
	"materials":[
		{
			"doubleSided":true,
			"extensions":{
				"KHR_materials_clearcoat":{
					"clearcoatRoughnessFactor":0
				},
				"KHR_materials_specular":{
					"specularColorFactor":[
						2.0,
						2.0,
						2.0
					]
				},
				"KHR_materials_ior":{
					"ior":1.5199999809265137
				}
			},
			"name":"Winter_Lake_Landscape",
			"pbrMetallicRoughness":{
				"baseColorTexture":{
					"index":0
				},
				"metallicFactor":0,
				"roughnessFactor":0.6769230365753174
			}
		}
	],
	"meshes":[
		{
			"name":"Mesh",
			"primitives":[
				{
					"attributes":{
						"POSITION":0,
						"NORMAL":1,
						"TEXCOORD_0":2
					},
					"indices":3,
					"material":0
				}
			]
		}
	],
	"textures":[
		{
			"sampler":0,
			"source":0
		}
	],
	"images":[
		{
			"mimeType":"image/png",
			"name":"Color_full_v2",
			"uri":"Color_full_v2.png"
		}
	],
	"accessors":[
		{
			"bufferView":0,
			"componentType":5126,
			"count":199922,
			"max":[
				5075.75,
				1771.5264892578125,
				5075.75048828125
			],
			"min":[
				-5075.75048828125,
				-3.270568609237671,
				-5075.74951171875
			],
			"type":"VEC3"
		},
		{
			"bufferView":1,
			"componentType":5126,
			"count":199922,
			"type":"VEC3"
		},
		{
			"bufferView":2,
			"componentType":5126,
			"count":199922,
			"type":"VEC2"
		},
		{
			"bufferView":3,
			"componentType":5125,
			"count":1195947,
			"type":"SCALAR"
		}
	],
	"bufferViews":[
		{
			"buffer":0,
			"byteLength":2399064,
			"byteOffset":0,
			"target":34962
		},
		{
			"buffer":0,
			"byteLength":2399064,
			"byteOffset":2399064,
			"target":34962
		},
		{
			"buffer":0,
			"byteLength":1599376,
			"byteOffset":4798128,
			"target":34962
		},
		{
			"buffer":0,
			"byteLength":4783788,
			"byteOffset":6397504,
			"target":34963
		}
	],
	"samplers":[
		{
			"magFilter":9729,
			"minFilter":9987
		}
	],
	"buffers":[
		{
			"byteLength":11181292,
			"uri":"biglandscape.bin"
		}
	]
}
